<svg width="32px" height="32px" viewBox="0 0 40 58" xmlns="http://www.w3.org/2000/svg" svg-inline=""
    role="presentation" focusable="false" tabindex="-1" class="svg">
    <path
        d="M0 10.85c0 3.796 1.937 7.136 4.87 9.075A10.86 10.86 0 000 29a10.86 10.86 0 004.87 9.075A10.86 10.86 0 000 47.15C0 53.155 4.89 58 10.833 58c5.998 0 10.932-4.89 10.932-10.949V37.028a10.702 10.702 0 007.255 2.822h.196C35.172 39.85 40 34.992 40 29a10.86 10.86 0 00-4.87-9.075A10.86 10.86 0 0040 10.85C40 4.858 35.172 0 29.216 0H10.784C4.828 0 0 4.858 0 10.85zm29.216 7.3c4.006 0 7.255-3.268 7.255-7.3 0-4.031-3.248-7.299-7.255-7.299h-7.451V18.15h7.45zm-10.98 3.55h-7.452c-4.006 0-7.254 3.27-7.254 7.3 0 4.031 3.249 7.3 7.255 7.3h7.451V21.7zm3.529 7.3c0 4.031 3.248 7.3 7.255 7.3h.196c4.006 0 7.255-3.269 7.255-7.3s-3.248-7.3-7.255-7.3h-.196c-4.007 0-7.255 3.269-7.255 7.3zm-10.98 10.85h7.45v7.201c0 4.073-3.329 7.398-7.402 7.398-4.02 0-7.304-3.28-7.304-7.3 0-4.03 3.249-7.299 7.255-7.299zm7.45-36.299V18.15h-7.45c-4.007 0-7.256-3.268-7.256-7.3 0-4.031 3.249-7.299 7.255-7.299h7.451z"
        fill-rule="evenodd"></path>
</svg>