<?xml version="1.0" encoding="utf-8"?>
<svg width="24" height="24" viewBox="0 0 24 24" fill="none" xmlns="http://www.w3.org/2000/svg">
    <path
        d="M13.5909 12.5L18.3984 7.6925L19.3898 6.70109C19.5361 6.55484 19.5361 6.31719 19.3898 6.17094L18.3291 5.11016C18.1828 4.96391 17.9452 4.96391 17.7989 5.11016L12 10.9091L6.20109 5.10969C6.05484 4.96344 5.81719 4.96344 5.67094 5.10969L4.60969 6.17047C4.46344 6.31672 4.46344 6.55438 4.60969 6.70063L10.4091 12.5L4.60969 18.2989C4.46344 18.4452 4.46344 18.6828 4.60969 18.8291L5.67047 19.8898C5.81672 20.0361 6.05437 20.0361 6.20062 19.8898L12 14.0909L16.8075 18.8984L17.7989 19.8898C17.9452 20.0361 18.1828 20.0361 18.3291 19.8898L19.3898 18.8291C19.5361 18.6828 19.5361 18.4452 19.3898 18.2989L13.5909 12.5Z"
        fill="#697386" />
</svg>
    