<?xml version="1.0" encoding="utf-8"?>
<svg width="19" height="19" viewBox="0 0 19 19" fill="none" xmlns="http://www.w3.org/2000/svg">
    <path
        d="M9.5 18.5C14.4235 18.5 18.5 14.4147 18.5 9.5C18.5 4.57647 14.4147 0.5 9.49118 0.5C4.57647 0.5 0.5 4.57647 0.5 9.5C0.5 14.4147 4.58529 18.5 9.5 18.5ZM6.38529 13.3471C5.98823 13.3471 5.66176 13.0118 5.66176 12.6059C5.66176 12.4118 5.74118 12.2353 5.87353 12.0941L8.45882 9.50882L5.87353 6.92353C5.74118 6.78235 5.66176 6.60588 5.66176 6.41176C5.66176 6.00588 5.98823 5.68824 6.38529 5.68824C6.59706 5.68824 6.76471 5.75882 6.89706 5.9L9.49118 8.48529L12.1118 5.89118C12.2618 5.74118 12.4206 5.67059 12.6147 5.67059C13.0118 5.67059 13.3382 5.99706 13.3382 6.39412C13.3382 6.59706 13.2765 6.75588 13.1265 6.91471L10.5324 9.50882L13.1176 12.0853C13.2588 12.2353 13.3294 12.4029 13.3294 12.6059C13.3294 13.0118 13.0029 13.3471 12.5971 13.3471C12.3941 13.3471 12.2176 13.2588 12.0765 13.1265L9.49118 10.5412L6.92353 13.1265C6.78235 13.2676 6.59706 13.3471 6.38529 13.3471Z"
        fill="#3C3C43" fill-opacity="0.6" />
</svg>
    